<svg width="640" height="385" viewBox="0 0 640 385" fill="none" xmlns="http://www.w3.org/2000/svg">
<path d="M622.34 90.2L343.4 4.5C328.2 -0.170002 311.8 -0.170002 296.61 4.5L17.66 90.2C-5.88 97.43 -5.88 128.56 17.66 135.79L66.29 150.73C55.62 163.92 49.06 180.01 48.41 197.63C38.78 203.15 32 213.11 32 225C32 235.78 37.68 244.85 45.86 250.65L20.33 365.53C18.11 375.52 25.71 385 35.94 385H92.05C102.29 385 109.89 375.52 107.67 365.53L82.14 250.65C90.32 244.85 96 235.78 96 225C96 213.43 89.53 203.75 80.34 198.13C81.1 183.11 88.78 169.83 101.03 161.41L296.6 221.5C305.66 224.28 323.04 227.75 343.39 221.5L622.34 135.8C645.89 128.56 645.89 97.44 622.34 90.2V90.2ZM352.79 252.09C324.26 260.85 299.95 256.01 287.2 252.09L142.18 207.54L128 321C128 356.35 213.96 385 320 385C426.04 385 512 356.35 512 321L497.82 207.53L352.79 252.09V252.09Z" fill="#FFBA0A"/>
</svg>
